<svg width="134" height="88" viewBox="0 0 134 88" fill="none" xmlns="http://www.w3.org/2000/svg">
<path fill-rule="evenodd" clip-rule="evenodd" d="M131.072 81.48C132.611 81.48 133.861 82.7295 133.861 84.269C133.861 85.8086 132.611 87.0574 131.072 87.0574C129.532 87.0574 128.283 85.8086 128.283 84.269C128.283 82.7295 129.532 81.48 131.072 81.48Z" fill="#E30016"/>
<path fill-rule="evenodd" clip-rule="evenodd" d="M131.072 75.6597C132.611 75.6597 133.861 76.9091 133.861 78.4487C133.861 79.9883 132.611 81.2371 131.072 81.2371C129.532 81.2371 128.283 79.9883 128.283 78.4487C128.283 76.9091 129.532 75.6597 131.072 75.6597Z" fill="#E30016"/>
<path fill-rule="evenodd" clip-rule="evenodd" d="M131.072 64.0195C132.611 64.0195 133.861 65.269 133.861 66.8086C133.861 68.3481 132.611 69.5976 131.072 69.5976C129.532 69.5976 128.283 68.3481 128.283 66.8086C128.283 65.269 129.532 64.0195 131.072 64.0195Z" fill="#E30016"/>
<path fill-rule="evenodd" clip-rule="evenodd" d="M131.072 52.3794C132.611 52.3794 133.861 53.6289 133.861 55.1684C133.861 56.708 132.611 57.9575 131.072 57.9575C129.532 57.9575 128.283 56.708 128.283 55.1684C128.283 53.6289 129.532 52.3794 131.072 52.3794Z" fill="#E30016"/>
<path fill-rule="evenodd" clip-rule="evenodd" d="M131.072 46.5605C132.611 46.5605 133.861 47.8093 133.861 49.3489C133.861 50.8885 132.611 52.138 131.072 52.138C129.532 52.138 128.283 50.8885 128.283 49.3489C128.283 47.8093 129.532 46.5605 131.072 46.5605Z" fill="#E30016"/>
<path fill-rule="evenodd" clip-rule="evenodd" d="M131.072 40.7402C132.611 40.7402 133.861 41.989 133.861 43.5286C133.861 45.0682 132.611 46.3176 131.072 46.3176C129.532 46.3176 128.283 45.0682 128.283 43.5286C128.283 41.989 129.532 40.7402 131.072 40.7402Z" fill="#E30016"/>
<path fill-rule="evenodd" clip-rule="evenodd" d="M131.072 29.1001C132.611 29.1001 133.861 30.3489 133.861 31.8885C133.861 33.4281 132.611 34.6775 131.072 34.6775C129.532 34.6775 128.283 33.4281 128.283 31.8885C128.283 30.3489 129.532 29.1001 131.072 29.1001Z" fill="#E30016"/>
<path fill-rule="evenodd" clip-rule="evenodd" d="M131.072 23.2803C132.611 23.2803 133.861 24.5291 133.861 26.0687C133.861 27.6089 132.611 28.8577 131.072 28.8577C129.532 28.8577 128.283 27.6089 128.283 26.0687C128.283 24.5291 129.532 23.2803 131.072 23.2803Z" fill="#E30016"/>
<path fill-rule="evenodd" clip-rule="evenodd" d="M131.072 17.46C132.611 17.46 133.861 18.7088 133.861 20.2484C133.861 21.7886 132.611 23.0374 131.072 23.0374C129.532 23.0374 128.283 21.7886 128.283 20.2484C128.283 18.7088 129.532 17.46 131.072 17.46Z" fill="#E30016"/>
<path fill-rule="evenodd" clip-rule="evenodd" d="M131.072 11.6401C132.611 11.6401 133.861 12.8889 133.861 14.4285C133.861 15.9687 132.611 17.2175 131.072 17.2175C129.532 17.2175 128.283 15.9687 128.283 14.4285C128.283 12.8889 129.532 11.6401 131.072 11.6401Z" fill="#E30016"/>
<path fill-rule="evenodd" clip-rule="evenodd" d="M125.494 69.8398C127.034 69.8398 128.283 71.0893 128.283 72.6289C128.283 74.1684 127.034 75.4172 125.494 75.4172C123.955 75.4172 122.705 74.1684 122.705 72.6289C122.705 71.0893 123.955 69.8398 125.494 69.8398Z" fill="#E30016"/>
<path fill-rule="evenodd" clip-rule="evenodd" d="M125.494 58.1997C127.034 58.1997 128.283 59.4492 128.283 60.9887C128.283 62.5283 127.034 63.7778 125.494 63.7778C123.955 63.7778 122.705 62.5283 122.705 60.9887C122.705 59.4492 123.955 58.1997 125.494 58.1997Z" fill="#E30016"/>
<path fill-rule="evenodd" clip-rule="evenodd" d="M125.494 52.3794C127.034 52.3794 128.283 53.6289 128.283 55.1684C128.283 56.708 127.034 57.9575 125.494 57.9575C123.955 57.9575 122.705 56.708 122.705 55.1684C122.705 53.6289 123.955 52.3794 125.494 52.3794Z" fill="#E30016"/>
<path fill-rule="evenodd" clip-rule="evenodd" d="M125.494 34.9199C127.034 34.9199 128.283 36.1687 128.283 37.7083C128.283 39.2479 127.034 40.4973 125.494 40.4973C123.955 40.4973 122.705 39.2479 122.705 37.7083C122.705 36.1687 123.955 34.9199 125.494 34.9199Z" fill="#E30016"/>
<path fill-rule="evenodd" clip-rule="evenodd" d="M125.494 29.1001C127.034 29.1001 128.283 30.3489 128.283 31.8885C128.283 33.4281 127.034 34.6775 125.494 34.6775C123.955 34.6775 122.705 33.4281 122.705 31.8885C122.705 30.3489 123.955 29.1001 125.494 29.1001Z" fill="#E30016"/>
<path fill-rule="evenodd" clip-rule="evenodd" d="M125.494 23.2803C127.034 23.2803 128.283 24.5291 128.283 26.0687C128.283 27.6089 127.034 28.8577 125.494 28.8577C123.955 28.8577 122.705 27.6089 122.705 26.0687C122.705 24.5291 123.955 23.2803 125.494 23.2803Z" fill="#E30016"/>
<path fill-rule="evenodd" clip-rule="evenodd" d="M125.494 11.6401C127.034 11.6401 128.283 12.8889 128.283 14.4285C128.283 15.9687 127.034 17.2175 125.494 17.2175C123.955 17.2175 122.705 15.9687 122.705 14.4285C122.705 12.8889 123.955 11.6401 125.494 11.6401Z" fill="#E30016"/>
<path fill-rule="evenodd" clip-rule="evenodd" d="M125.494 5.81982C127.034 5.81982 128.283 7.06863 128.283 8.60886C128.283 10.1484 127.034 11.3972 125.494 11.3972C123.955 11.3972 122.705 10.1484 122.705 8.60886C122.705 7.06863 123.955 5.81982 125.494 5.81982Z" fill="#E30016"/>
<path fill-rule="evenodd" clip-rule="evenodd" d="M119.916 69.8398C121.456 69.8398 122.704 71.0893 122.704 72.6289C122.704 74.1684 121.456 75.4172 119.916 75.4172C118.376 75.4172 117.127 74.1684 117.127 72.6289C117.127 71.0893 118.376 69.8398 119.916 69.8398Z" fill="#E30016"/>
<path fill-rule="evenodd" clip-rule="evenodd" d="M119.916 52.3794C121.456 52.3794 122.704 53.6289 122.704 55.1684C122.704 56.708 121.456 57.9575 119.916 57.9575C118.376 57.9575 117.127 56.708 117.127 55.1684C117.127 53.6289 118.376 52.3794 119.916 52.3794Z" fill="#E30016"/>
<path fill-rule="evenodd" clip-rule="evenodd" d="M119.916 40.7402C121.456 40.7402 122.704 41.989 122.704 43.5286C122.704 45.0682 121.456 46.3176 119.916 46.3176C118.376 46.3176 117.127 45.0682 117.127 43.5286C117.127 41.989 118.376 40.7402 119.916 40.7402Z" fill="#E30016"/>
<path fill-rule="evenodd" clip-rule="evenodd" d="M119.916 34.9199C121.456 34.9199 122.704 36.1687 122.704 37.7083C122.704 39.2479 121.456 40.4973 119.916 40.4973C118.376 40.4973 117.127 39.2479 117.127 37.7083C117.127 36.1687 118.376 34.9199 119.916 34.9199Z" fill="#E30016"/>
<path fill-rule="evenodd" clip-rule="evenodd" d="M119.916 23.2803C121.456 23.2803 122.704 24.5291 122.704 26.0687C122.704 27.6089 121.456 28.8577 119.916 28.8577C118.376 28.8577 117.127 27.6089 117.127 26.0687C117.127 24.5291 118.376 23.2803 119.916 23.2803Z" fill="#E30016"/>
<path fill-rule="evenodd" clip-rule="evenodd" d="M119.916 17.46C121.456 17.46 122.704 18.7088 122.704 20.2484C122.704 21.7886 121.456 23.0374 119.916 23.0374C118.376 23.0374 117.127 21.7886 117.127 20.2484C117.127 18.7088 118.376 17.46 119.916 17.46Z" fill="#E30016"/>
<path fill-rule="evenodd" clip-rule="evenodd" d="M119.916 11.6401C121.456 11.6401 122.704 12.8889 122.704 14.4285C122.704 15.9687 121.456 17.2175 119.916 17.2175C118.376 17.2175 117.127 15.9687 117.127 14.4285C117.127 12.8889 118.376 11.6401 119.916 11.6401Z" fill="#E30016"/>
<path fill-rule="evenodd" clip-rule="evenodd" d="M119.916 5.81982C121.456 5.81982 122.704 7.06863 122.704 8.60886C122.704 10.1484 121.456 11.3972 119.916 11.3972C118.376 11.3972 117.127 10.1484 117.127 8.60886C117.127 7.06863 118.376 5.81982 119.916 5.81982Z" fill="#E30016"/>
<path fill-rule="evenodd" clip-rule="evenodd" d="M114.339 81.48C115.878 81.48 117.127 82.7295 117.127 84.269C117.127 85.8086 115.878 87.0574 114.339 87.0574C112.799 87.0574 111.55 85.8086 111.55 84.269C111.55 82.7295 112.799 81.48 114.339 81.48Z" fill="#E30016"/>
<path fill-rule="evenodd" clip-rule="evenodd" d="M114.339 64.0195C115.878 64.0195 117.127 65.269 117.127 66.8086C117.127 68.3481 115.878 69.5976 114.339 69.5976C112.799 69.5976 111.55 68.3481 111.55 66.8086C111.55 65.269 112.799 64.0195 114.339 64.0195Z" fill="#E30016"/>
<path fill-rule="evenodd" clip-rule="evenodd" d="M114.339 52.3794C115.878 52.3794 117.127 53.6289 117.127 55.1684C117.127 56.708 115.878 57.9575 114.339 57.9575C112.799 57.9575 111.55 56.708 111.55 55.1684C111.55 53.6289 112.799 52.3794 114.339 52.3794Z" fill="#E30016"/>
<path fill-rule="evenodd" clip-rule="evenodd" d="M114.339 46.5605C115.878 46.5605 117.127 47.8093 117.127 49.3489C117.127 50.8885 115.878 52.138 114.339 52.138C112.799 52.138 111.55 50.8885 111.55 49.3489C111.55 47.8093 112.799 46.5605 114.339 46.5605Z" fill="#E30016"/>
<path fill-rule="evenodd" clip-rule="evenodd" d="M114.339 34.9199C115.878 34.9199 117.127 36.1687 117.127 37.7083C117.127 39.2479 115.878 40.4973 114.339 40.4973C112.799 40.4973 111.55 39.2479 111.55 37.7083C111.55 36.1687 112.799 34.9199 114.339 34.9199Z" fill="#E30016"/>
<path fill-rule="evenodd" clip-rule="evenodd" d="M114.339 29.1001C115.878 29.1001 117.127 30.3489 117.127 31.8885C117.127 33.4281 115.878 34.6775 114.339 34.6775C112.799 34.6775 111.55 33.4281 111.55 31.8885C111.55 30.3489 112.799 29.1001 114.339 29.1001Z" fill="#E30016"/>
<path fill-rule="evenodd" clip-rule="evenodd" d="M114.339 23.2803C115.878 23.2803 117.127 24.5291 117.127 26.0687C117.127 27.6089 115.878 28.8577 114.339 28.8577C112.799 28.8577 111.55 27.6089 111.55 26.0687C111.55 24.5291 112.799 23.2803 114.339 23.2803Z" fill="#E30016"/>
<path fill-rule="evenodd" clip-rule="evenodd" d="M114.339 17.46C115.878 17.46 117.127 18.7088 117.127 20.2484C117.127 21.7886 115.878 23.0374 114.339 23.0374C112.799 23.0374 111.55 21.7886 111.55 20.2484C111.55 18.7088 112.799 17.46 114.339 17.46Z" fill="#E30016"/>
<path fill-rule="evenodd" clip-rule="evenodd" d="M114.339 11.6401C115.878 11.6401 117.127 12.8889 117.127 14.4285C117.127 15.9687 115.878 17.2175 114.339 17.2175C112.799 17.2175 111.55 15.9687 111.55 14.4285C111.55 12.8889 112.799 11.6401 114.339 11.6401Z" fill="#E30016"/>
<path fill-rule="evenodd" clip-rule="evenodd" d="M114.339 5.81982C115.878 5.81982 117.127 7.06863 117.127 8.60886C117.127 10.1484 115.878 11.3972 114.339 11.3972C112.799 11.3972 111.55 10.1484 111.55 8.60886C111.55 7.06863 112.799 5.81982 114.339 5.81982Z" fill="#E30016"/>
<path fill-rule="evenodd" clip-rule="evenodd" d="M119.916 0C121.456 0 122.704 1.2488 122.704 2.78904C122.704 4.3286 121.456 5.57741 119.916 5.57741C118.376 5.57741 117.127 4.3286 117.127 2.78904C117.127 1.2488 118.376 0 119.916 0Z" fill="#E30016"/>
<path fill-rule="evenodd" clip-rule="evenodd" d="M114.339 0C115.878 0 117.127 1.2488 117.127 2.78904C117.127 4.3286 115.878 5.57741 114.339 5.57741C112.799 5.57741 111.55 4.3286 111.55 2.78904C111.55 1.2488 112.799 0 114.339 0Z" fill="#E30016"/>
<path fill-rule="evenodd" clip-rule="evenodd" d="M103.184 11.6401C104.724 11.6401 105.973 12.8889 105.973 14.4285C105.973 15.9687 104.724 17.2175 103.184 17.2175C101.644 17.2175 100.396 15.9687 100.396 14.4285C100.396 12.8889 101.644 11.6401 103.184 11.6401Z" fill="#E30016"/>
<path fill-rule="evenodd" clip-rule="evenodd" d="M97.6057 11.6401C99.1453 11.6401 100.395 12.8889 100.395 14.4285C100.395 15.9687 99.1453 17.2175 97.6057 17.2175C96.0662 17.2175 94.8174 15.9687 94.8174 14.4285C94.8174 12.8889 96.0662 11.6401 97.6057 11.6401Z" fill="#E30016"/>
<path fill-rule="evenodd" clip-rule="evenodd" d="M97.6057 5.81982C99.1453 5.81982 100.395 7.06863 100.395 8.60886C100.395 10.1484 99.1453 11.3972 97.6057 11.3972C96.0662 11.3972 94.8174 10.1484 94.8174 8.60886C94.8174 7.06863 96.0662 5.81982 97.6057 5.81982Z" fill="#E30016"/>
<path fill-rule="evenodd" clip-rule="evenodd" d="M92.0293 11.6401C93.5688 11.6401 94.8183 12.8889 94.8183 14.4285C94.8183 15.9687 93.5688 17.2175 92.0293 17.2175C90.4897 17.2175 89.2402 15.9687 89.2402 14.4285C89.2402 12.8889 90.4897 11.6401 92.0293 11.6401Z" fill="#E30016"/>
<path fill-rule="evenodd" clip-rule="evenodd" d="M92.0293 5.81982C93.5688 5.81982 94.8183 7.06863 94.8183 8.60886C94.8183 10.1484 93.5688 11.3972 92.0293 11.3972C90.4897 11.3972 89.2402 10.1484 89.2402 8.60886C89.2402 7.06863 90.4897 5.81982 92.0293 5.81982Z" fill="#E30016"/>
<path fill-rule="evenodd" clip-rule="evenodd" d="M86.4511 81.48C87.9907 81.48 89.2395 82.7295 89.2395 84.269C89.2395 85.8086 87.9907 87.0574 86.4511 87.0574C84.9116 87.0574 83.6621 85.8086 83.6621 84.269C83.6621 82.7295 84.9116 81.48 86.4511 81.48Z" fill="#E30016"/>
<path fill-rule="evenodd" clip-rule="evenodd" d="M86.4511 69.8398C87.9907 69.8398 89.2395 71.0893 89.2395 72.6289C89.2395 74.1684 87.9907 75.4172 86.4511 75.4172C84.9116 75.4172 83.6621 74.1684 83.6621 72.6289C83.6621 71.0893 84.9116 69.8398 86.4511 69.8398Z" fill="#E30016"/>
<path fill-rule="evenodd" clip-rule="evenodd" d="M86.4511 58.1997C87.9907 58.1997 89.2395 59.4492 89.2395 60.9887C89.2395 62.5283 87.9907 63.7778 86.4511 63.7778C84.9116 63.7778 83.6621 62.5283 83.6621 60.9887C83.6621 59.4492 84.9116 58.1997 86.4511 58.1997Z" fill="#E30016"/>
<path fill-rule="evenodd" clip-rule="evenodd" d="M86.4511 52.3794C87.9907 52.3794 89.2395 53.6289 89.2395 55.1684C89.2395 56.708 87.9907 57.9575 86.4511 57.9575C84.9116 57.9575 83.6621 56.708 83.6621 55.1684C83.6621 53.6289 84.9116 52.3794 86.4511 52.3794Z" fill="#E30016"/>
<path fill-rule="evenodd" clip-rule="evenodd" d="M86.4511 40.7402C87.9907 40.7402 89.2395 41.989 89.2395 43.5286C89.2395 45.0682 87.9907 46.3176 86.4511 46.3176C84.9116 46.3176 83.6621 45.0682 83.6621 43.5286C83.6621 41.989 84.9116 40.7402 86.4511 40.7402Z" fill="#E30016"/>
<path fill-rule="evenodd" clip-rule="evenodd" d="M86.4511 34.9199C87.9907 34.9199 89.2395 36.1687 89.2395 37.7083C89.2395 39.2479 87.9907 40.4973 86.4511 40.4973C84.9116 40.4973 83.6621 39.2479 83.6621 37.7083C83.6621 36.1687 84.9116 34.9199 86.4511 34.9199Z" fill="#E30016"/>
<path fill-rule="evenodd" clip-rule="evenodd" d="M86.4511 29.1001C87.9907 29.1001 89.2395 30.3489 89.2395 31.8885C89.2395 33.4281 87.9907 34.6775 86.4511 34.6775C84.9116 34.6775 83.6621 33.4281 83.6621 31.8885C83.6621 30.3489 84.9116 29.1001 86.4511 29.1001Z" fill="#E30016"/>
<path fill-rule="evenodd" clip-rule="evenodd" d="M86.4511 23.2803C87.9907 23.2803 89.2395 24.5291 89.2395 26.0687C89.2395 27.6089 87.9907 28.8577 86.4511 28.8577C84.9116 28.8577 83.6621 27.6089 83.6621 26.0687C83.6621 24.5291 84.9116 23.2803 86.4511 23.2803Z" fill="#E30016"/>
<path fill-rule="evenodd" clip-rule="evenodd" d="M86.4511 17.46C87.9907 17.46 89.2395 18.7088 89.2395 20.2484C89.2395 21.7886 87.9907 23.0374 86.4511 23.0374C84.9116 23.0374 83.6621 21.7886 83.6621 20.2484C83.6621 18.7088 84.9116 17.46 86.4511 17.46Z" fill="#E30016"/>
<path fill-rule="evenodd" clip-rule="evenodd" d="M86.4511 11.6401C87.9907 11.6401 89.2395 12.8889 89.2395 14.4285C89.2395 15.9687 87.9907 17.2175 86.4511 17.2175C84.9116 17.2175 83.6621 15.9687 83.6621 14.4285C83.6621 12.8889 84.9116 11.6401 86.4511 11.6401Z" fill="#E30016"/>
<path fill-rule="evenodd" clip-rule="evenodd" d="M86.4511 5.81982C87.9907 5.81982 89.2395 7.06863 89.2395 8.60886C89.2395 10.1484 87.9907 11.3972 86.4511 11.3972C84.9116 11.3972 83.6621 10.1484 83.6621 8.60886C83.6621 7.06863 84.9116 5.81982 86.4511 5.81982Z" fill="#E30016"/>
<path fill-rule="evenodd" clip-rule="evenodd" d="M80.874 64.0195C82.4136 64.0195 83.6624 65.269 83.6624 66.8086C83.6624 68.3481 82.4136 69.5976 80.874 69.5976C79.3344 69.5976 78.085 68.3481 78.085 66.8086C78.085 65.269 79.3344 64.0195 80.874 64.0195Z" fill="#E30016"/>
<path fill-rule="evenodd" clip-rule="evenodd" d="M80.874 46.5605C82.4136 46.5605 83.6624 47.8093 83.6624 49.3489C83.6624 50.8885 82.4136 52.138 80.874 52.138C79.3344 52.138 78.085 50.8885 78.085 49.3489C78.085 47.8093 79.3344 46.5605 80.874 46.5605Z" fill="#E30016"/>
<path fill-rule="evenodd" clip-rule="evenodd" d="M80.874 40.7402C82.4136 40.7402 83.6624 41.989 83.6624 43.5286C83.6624 45.0682 82.4136 46.3176 80.874 46.3176C79.3344 46.3176 78.085 45.0682 78.085 43.5286C78.085 41.989 79.3344 40.7402 80.874 40.7402Z" fill="#E30016"/>
<path fill-rule="evenodd" clip-rule="evenodd" d="M80.874 34.9199C82.4136 34.9199 83.6624 36.1687 83.6624 37.7083C83.6624 39.2479 82.4136 40.4973 80.874 40.4973C79.3344 40.4973 78.085 39.2479 78.085 37.7083C78.085 36.1687 79.3344 34.9199 80.874 34.9199Z" fill="#E30016"/>
<path fill-rule="evenodd" clip-rule="evenodd" d="M80.874 29.1001C82.4136 29.1001 83.6624 30.3489 83.6624 31.8885C83.6624 33.4281 82.4136 34.6775 80.874 34.6775C79.3344 34.6775 78.085 33.4281 78.085 31.8885C78.085 30.3489 79.3344 29.1001 80.874 29.1001Z" fill="#E30016"/>
<path fill-rule="evenodd" clip-rule="evenodd" d="M80.874 23.2803C82.4136 23.2803 83.6624 24.5291 83.6624 26.0687C83.6624 27.6089 82.4136 28.8577 80.874 28.8577C79.3344 28.8577 78.085 27.6089 78.085 26.0687C78.085 24.5291 79.3344 23.2803 80.874 23.2803Z" fill="#E30016"/>
<path fill-rule="evenodd" clip-rule="evenodd" d="M80.874 17.46C82.4136 17.46 83.6624 18.7088 83.6624 20.2484C83.6624 21.7886 82.4136 23.0374 80.874 23.0374C79.3344 23.0374 78.085 21.7886 78.085 20.2484C78.085 18.7088 79.3344 17.46 80.874 17.46Z" fill="#E30016"/>
<path fill-rule="evenodd" clip-rule="evenodd" d="M80.874 5.81982C82.4136 5.81982 83.6624 7.06863 83.6624 8.60886C83.6624 10.1484 82.4136 11.3972 80.874 11.3972C79.3344 11.3972 78.085 10.1484 78.085 8.60886C78.085 7.06863 79.3344 5.81982 80.874 5.81982Z" fill="#E30016"/>
<path fill-rule="evenodd" clip-rule="evenodd" d="M75.2959 75.6597C76.8354 75.6597 78.0842 76.9091 78.0842 78.4487C78.0842 79.9883 76.8354 81.2371 75.2959 81.2371C73.7556 81.2371 72.5068 79.9883 72.5068 78.4487C72.5068 76.9091 73.7556 75.6597 75.2959 75.6597Z" fill="#E30016"/>
<path fill-rule="evenodd" clip-rule="evenodd" d="M75.2959 64.0195C76.8354 64.0195 78.0842 65.269 78.0842 66.8086C78.0842 68.3481 76.8354 69.5976 75.2959 69.5976C73.7556 69.5976 72.5068 68.3481 72.5068 66.8086C72.5068 65.269 73.7556 64.0195 75.2959 64.0195Z" fill="#E30016"/>
<path fill-rule="evenodd" clip-rule="evenodd" d="M75.2959 52.3794C76.8354 52.3794 78.0842 53.6289 78.0842 55.1684C78.0842 56.708 76.8354 57.9575 75.2959 57.9575C73.7556 57.9575 72.5068 56.708 72.5068 55.1684C72.5068 53.6289 73.7556 52.3794 75.2959 52.3794Z" fill="#E30016"/>
<path fill-rule="evenodd" clip-rule="evenodd" d="M75.2959 46.5605C76.8354 46.5605 78.0842 47.8093 78.0842 49.3489C78.0842 50.8885 76.8354 52.138 75.2959 52.138C73.7556 52.138 72.5068 50.8885 72.5068 49.3489C72.5068 47.8093 73.7556 46.5605 75.2959 46.5605Z" fill="#E30016"/>
<path fill-rule="evenodd" clip-rule="evenodd" d="M75.2959 34.9199C76.8354 34.9199 78.0842 36.1687 78.0842 37.7083C78.0842 39.2479 76.8354 40.4973 75.2959 40.4973C73.7556 40.4973 72.5068 39.2479 72.5068 37.7083C72.5068 36.1687 73.7556 34.9199 75.2959 34.9199Z" fill="#E30016"/>
<path fill-rule="evenodd" clip-rule="evenodd" d="M75.2959 29.1001C76.8354 29.1001 78.0842 30.3489 78.0842 31.8885C78.0842 33.4281 76.8354 34.6775 75.2959 34.6775C73.7556 34.6775 72.5068 33.4281 72.5068 31.8885C72.5068 30.3489 73.7556 29.1001 75.2959 29.1001Z" fill="#E30016"/>
<path fill-rule="evenodd" clip-rule="evenodd" d="M75.2959 17.46C76.8354 17.46 78.0842 18.7088 78.0842 20.2484C78.0842 21.7886 76.8354 23.0374 75.2959 23.0374C73.7556 23.0374 72.5068 21.7886 72.5068 20.2484C72.5068 18.7088 73.7556 17.46 75.2959 17.46Z" fill="#E30016"/>
<path fill-rule="evenodd" clip-rule="evenodd" d="M75.2959 11.6401C76.8354 11.6401 78.0842 12.8889 78.0842 14.4285C78.0842 15.9687 76.8354 17.2175 75.2959 17.2175C73.7556 17.2175 72.5068 15.9687 72.5068 14.4285C72.5068 12.8889 73.7556 11.6401 75.2959 11.6401Z" fill="#E30016"/>
<path fill-rule="evenodd" clip-rule="evenodd" d="M75.2959 5.81982C76.8354 5.81982 78.0842 7.06863 78.0842 8.60886C78.0842 10.1484 76.8354 11.3972 75.2959 11.3972C73.7556 11.3972 72.5068 10.1484 72.5068 8.60886C72.5068 7.06863 73.7556 5.81982 75.2959 5.81982Z" fill="#E30016"/>
<path fill-rule="evenodd" clip-rule="evenodd" d="M69.719 81.48C71.2593 81.48 72.5081 82.7295 72.5081 84.269C72.5081 85.8086 71.2593 87.0574 69.719 87.0574C68.1795 87.0574 66.9307 85.8086 66.9307 84.269C66.9307 82.7295 68.1795 81.48 69.719 81.48Z" fill="#E30016"/>
<path fill-rule="evenodd" clip-rule="evenodd" d="M69.719 69.8398C71.2593 69.8398 72.5081 71.0893 72.5081 72.6289C72.5081 74.1684 71.2593 75.4172 69.719 75.4172C68.1795 75.4172 66.9307 74.1684 66.9307 72.6289C66.9307 71.0893 68.1795 69.8398 69.719 69.8398Z" fill="#E30016"/>
<path fill-rule="evenodd" clip-rule="evenodd" d="M69.719 58.1997C71.2593 58.1997 72.5081 59.4492 72.5081 60.9887C72.5081 62.5283 71.2593 63.7778 69.719 63.7778C68.1795 63.7778 66.9307 62.5283 66.9307 60.9887C66.9307 59.4492 68.1795 58.1997 69.719 58.1997Z" fill="#E30016"/>
<path fill-rule="evenodd" clip-rule="evenodd" d="M69.719 52.3794C71.2593 52.3794 72.5081 53.6289 72.5081 55.1684C72.5081 56.708 71.2593 57.9575 69.719 57.9575C68.1795 57.9575 66.9307 56.708 66.9307 55.1684C66.9307 53.6289 68.1795 52.3794 69.719 52.3794Z" fill="#E30016"/>
<path fill-rule="evenodd" clip-rule="evenodd" d="M69.719 40.7402C71.2593 40.7402 72.5081 41.989 72.5081 43.5286C72.5081 45.0682 71.2593 46.3176 69.719 46.3176C68.1795 46.3176 66.9307 45.0682 66.9307 43.5286C66.9307 41.989 68.1795 40.7402 69.719 40.7402Z" fill="#E30016"/>
<path fill-rule="evenodd" clip-rule="evenodd" d="M69.719 29.1001C71.2593 29.1001 72.5081 30.3489 72.5081 31.8885C72.5081 33.4281 71.2593 34.6775 69.719 34.6775C68.1795 34.6775 66.9307 33.4281 66.9307 31.8885C66.9307 30.3489 68.1795 29.1001 69.719 29.1001Z" fill="#E30016"/>
<path fill-rule="evenodd" clip-rule="evenodd" d="M69.719 23.2803C71.2593 23.2803 72.5081 24.5291 72.5081 26.0687C72.5081 27.6089 71.2593 28.8577 69.719 28.8577C68.1795 28.8577 66.9307 27.6089 66.9307 26.0687C66.9307 24.5291 68.1795 23.2803 69.719 23.2803Z" fill="#E30016"/>
<path fill-rule="evenodd" clip-rule="evenodd" d="M69.719 17.46C71.2593 17.46 72.5081 18.7088 72.5081 20.2484C72.5081 21.7886 71.2593 23.0374 69.719 23.0374C68.1795 23.0374 66.9307 21.7886 66.9307 20.2484C66.9307 18.7088 68.1795 17.46 69.719 17.46Z" fill="#E30016"/>
<path fill-rule="evenodd" clip-rule="evenodd" d="M69.719 11.6401C71.2593 11.6401 72.5081 12.8889 72.5081 14.4285C72.5081 15.9687 71.2593 17.2175 69.719 17.2175C68.1795 17.2175 66.9307 15.9687 66.9307 14.4285C66.9307 12.8889 68.1795 11.6401 69.719 11.6401Z" fill="#E30016"/>
<path fill-rule="evenodd" clip-rule="evenodd" d="M64.1409 11.6401C65.6805 11.6401 66.93 12.8889 66.93 14.4285C66.93 15.9687 65.6805 17.2175 64.1409 17.2175C62.6013 17.2175 61.3525 15.9687 61.3525 14.4285C61.3525 12.8889 62.6013 11.6401 64.1409 11.6401Z" fill="#E30016"/>
<path fill-rule="evenodd" clip-rule="evenodd" d="M64.1409 5.81982C65.6805 5.81982 66.93 7.06863 66.93 8.60886C66.93 10.1484 65.6805 11.3972 64.1409 11.3972C62.6013 11.3972 61.3525 10.1484 61.3525 8.60886C61.3525 7.06863 62.6013 5.81982 64.1409 5.81982Z" fill="#E30016"/>
<path fill-rule="evenodd" clip-rule="evenodd" d="M58.5638 5.81982C60.1033 5.81982 61.3528 7.06863 61.3528 8.60886C61.3528 10.1484 60.1033 11.3972 58.5638 11.3972C57.0242 11.3972 55.7754 10.1484 55.7754 8.60886C55.7754 7.06863 57.0242 5.81982 58.5638 5.81982Z" fill="#E30016"/>
<path fill-rule="evenodd" clip-rule="evenodd" d="M92.0293 0C93.5688 0 94.8183 1.2488 94.8183 2.78904C94.8183 4.3286 93.5688 5.57741 92.0293 5.57741C90.4897 5.57741 89.2402 4.3286 89.2402 2.78904C89.2402 1.2488 90.4897 0 92.0293 0Z" fill="#E30016"/>
<path fill-rule="evenodd" clip-rule="evenodd" d="M86.4511 0C87.9907 0 89.2395 1.2488 89.2395 2.78904C89.2395 4.3286 87.9907 5.57741 86.4511 5.57741C84.9116 5.57741 83.6621 4.3286 83.6621 2.78904C83.6621 1.2488 84.9116 0 86.4511 0Z" fill="#E30016"/>
<path fill-rule="evenodd" clip-rule="evenodd" d="M80.874 0C82.4136 0 83.6624 1.2488 83.6624 2.78904C83.6624 4.3286 82.4136 5.57741 80.874 5.57741C79.3344 5.57741 78.085 4.3286 78.085 2.78904C78.085 1.2488 79.3344 0 80.874 0Z" fill="#E30016"/>
<path fill-rule="evenodd" clip-rule="evenodd" d="M75.2959 0C76.8354 0 78.0842 1.2488 78.0842 2.78904C78.0842 4.3286 76.8354 5.57741 75.2959 5.57741C73.7556 5.57741 72.5068 4.3286 72.5068 2.78904C72.5068 1.2488 73.7556 0 75.2959 0Z" fill="#E30016"/>
<path fill-rule="evenodd" clip-rule="evenodd" d="M69.719 0C71.2593 0 72.5081 1.2488 72.5081 2.78904C72.5081 4.3286 71.2593 5.57741 69.719 5.57741C68.1795 5.57741 66.9307 4.3286 66.9307 2.78904C66.9307 1.2488 68.1795 0 69.719 0Z" fill="#E30016"/>
<path fill-rule="evenodd" clip-rule="evenodd" d="M64.1409 0C65.6805 0 66.93 1.2488 66.93 2.78904C66.93 4.3286 65.6805 5.57741 64.1409 5.57741C62.6013 5.57741 61.3525 4.3286 61.3525 2.78904C61.3525 1.2488 62.6013 0 64.1409 0Z" fill="#E30016"/>
<path fill-rule="evenodd" clip-rule="evenodd" d="M58.5638 0C60.1033 0 61.3528 1.2488 61.3528 2.78904C61.3528 4.3286 60.1033 5.57741 58.5638 5.57741C57.0242 5.57741 55.7754 4.3286 55.7754 2.78904C55.7754 1.2488 57.0242 0 58.5638 0Z" fill="#E30016"/>
<path fill-rule="evenodd" clip-rule="evenodd" d="M52.9863 0C54.5265 0 55.7753 1.2488 55.7753 2.78904C55.7753 4.3286 54.5259 5.57741 52.9863 5.57741C51.4467 5.57741 50.1973 4.3286 50.1973 2.78904C50.1973 1.2488 51.4467 0 52.9863 0Z" fill="#E30016"/>
<path fill-rule="evenodd" clip-rule="evenodd" d="M52.9863 46.5605C54.5265 46.5605 55.7753 47.8093 55.7753 49.3489C55.7753 50.8885 54.5259 52.138 52.9863 52.138C51.4467 52.138 50.1973 50.8885 50.1973 49.3489C50.1973 47.8093 51.4467 46.5605 52.9863 46.5605Z" fill="#E30016"/>
<path fill-rule="evenodd" clip-rule="evenodd" d="M52.9863 40.7402C54.5265 40.7402 55.7753 41.989 55.7753 43.5286C55.7753 45.0682 54.5259 46.3176 52.9863 46.3176C51.4467 46.3176 50.1973 45.0682 50.1973 43.5286C50.1973 41.989 51.4467 40.7402 52.9863 40.7402Z" fill="#E30016"/>
<path fill-rule="evenodd" clip-rule="evenodd" d="M52.9863 34.9199C54.5265 34.9199 55.7753 36.1687 55.7753 37.7083C55.7753 39.2479 54.5259 40.4973 52.9863 40.4973C51.4467 40.4973 50.1973 39.2479 50.1973 37.7083C50.1973 36.1687 51.4467 34.9199 52.9863 34.9199Z" fill="#E30016"/>
<path fill-rule="evenodd" clip-rule="evenodd" d="M52.9863 23.2803C54.5265 23.2803 55.7753 24.5291 55.7753 26.0687C55.7753 27.6089 54.5259 28.8577 52.9863 28.8577C51.4467 28.8577 50.1973 27.6089 50.1973 26.0687C50.1973 24.5291 51.4467 23.2803 52.9863 23.2803Z" fill="#E30016"/>
<path fill-rule="evenodd" clip-rule="evenodd" d="M52.9863 17.46C54.5265 17.46 55.7753 18.7088 55.7753 20.2484C55.7753 21.7886 54.5259 23.0374 52.9863 23.0374C51.4467 23.0374 50.1973 21.7886 50.1973 20.2484C50.1973 18.7088 51.4467 17.46 52.9863 17.46Z" fill="#E30016"/>
<path fill-rule="evenodd" clip-rule="evenodd" d="M52.9863 11.6401C54.5265 11.6401 55.7753 12.8889 55.7753 14.4285C55.7753 15.9687 54.5259 17.2175 52.9863 17.2175C51.4467 17.2175 50.1973 15.9687 50.1973 14.4285C50.1973 12.8889 51.4467 11.6401 52.9863 11.6401Z" fill="#E30016"/>
<path fill-rule="evenodd" clip-rule="evenodd" d="M47.4092 52.3794C48.9487 52.3794 50.1975 53.6289 50.1975 55.1684C50.1975 56.708 48.9487 57.9575 47.4092 57.9575C45.8696 57.9575 44.6201 56.708 44.6201 55.1684C44.6201 53.6289 45.8696 52.3794 47.4092 52.3794Z" fill="#E30016"/>
<path fill-rule="evenodd" clip-rule="evenodd" d="M47.4092 46.5605C48.9487 46.5605 50.1975 47.8093 50.1975 49.3489C50.1975 50.8885 48.9487 52.138 47.4092 52.138C45.8696 52.138 44.6201 50.8885 44.6201 49.3489C44.6201 47.8093 45.8696 46.5605 47.4092 46.5605Z" fill="#E30016"/>
<path fill-rule="evenodd" clip-rule="evenodd" d="M47.4092 34.9199C48.9487 34.9199 50.1975 36.1687 50.1975 37.7083C50.1975 39.2479 48.9487 40.4973 47.4092 40.4973C45.8696 40.4973 44.6201 39.2479 44.6201 37.7083C44.6201 36.1687 45.8696 34.9199 47.4092 34.9199Z" fill="#E30016"/>
<path fill-rule="evenodd" clip-rule="evenodd" d="M47.4092 29.1001C48.9487 29.1001 50.1975 30.3489 50.1975 31.8885C50.1975 33.4281 48.9487 34.6775 47.4092 34.6775C45.8696 34.6775 44.6201 33.4281 44.6201 31.8885C44.6201 30.3489 45.8696 29.1001 47.4092 29.1001Z" fill="#E30016"/>
<path fill-rule="evenodd" clip-rule="evenodd" d="M47.4092 23.2803C48.9487 23.2803 50.1975 24.5291 50.1975 26.0687C50.1975 27.6089 48.9487 28.8577 47.4092 28.8577C45.8696 28.8577 44.6201 27.6089 44.6201 26.0687C44.6201 24.5291 45.8696 23.2803 47.4092 23.2803Z" fill="#E30016"/>
<path fill-rule="evenodd" clip-rule="evenodd" d="M47.4092 17.46C48.9487 17.46 50.1975 18.7088 50.1975 20.2484C50.1975 21.7886 48.9487 23.0374 47.4092 23.0374C45.8696 23.0374 44.6201 21.7886 44.6201 20.2484C44.6201 18.7088 45.8696 17.46 47.4092 17.46Z" fill="#E30016"/>
<path fill-rule="evenodd" clip-rule="evenodd" d="M47.4092 11.6401C48.9487 11.6401 50.1975 12.8889 50.1975 14.4285C50.1975 15.9687 48.9487 17.2175 47.4092 17.2175C45.8696 17.2175 44.6201 15.9687 44.6201 14.4285C44.6201 12.8889 45.8696 11.6401 47.4092 11.6401Z" fill="#E30016"/>
<path fill-rule="evenodd" clip-rule="evenodd" d="M47.4092 5.81982C48.9487 5.81982 50.1975 7.06863 50.1975 8.60886C50.1975 10.1484 48.9487 11.3972 47.4092 11.3972C45.8696 11.3972 44.6201 10.1484 44.6201 8.60886C44.6201 7.06863 45.8696 5.81982 47.4092 5.81982Z" fill="#E30016"/>
<path fill-rule="evenodd" clip-rule="evenodd" d="M41.831 58.1997C43.3706 58.1997 44.6194 59.4492 44.6194 60.9887C44.6194 62.5283 43.3706 63.7778 41.831 63.7778C40.2908 63.7778 39.042 62.5283 39.042 60.9887C39.042 59.4492 40.2908 58.1997 41.831 58.1997Z" fill="#E30016"/>
<path fill-rule="evenodd" clip-rule="evenodd" d="M41.831 52.3794C43.3706 52.3794 44.6194 53.6289 44.6194 55.1684C44.6194 56.708 43.3706 57.9575 41.831 57.9575C40.2908 57.9575 39.042 56.708 39.042 55.1684C39.042 53.6289 40.2908 52.3794 41.831 52.3794Z" fill="#E30016"/>
<path fill-rule="evenodd" clip-rule="evenodd" d="M41.831 46.5605C43.3706 46.5605 44.6194 47.8093 44.6194 49.3489C44.6194 50.8885 43.3706 52.138 41.831 52.138C40.2908 52.138 39.042 50.8885 39.042 49.3489C39.042 47.8093 40.2908 46.5605 41.831 46.5605Z" fill="#E30016"/>
<path fill-rule="evenodd" clip-rule="evenodd" d="M41.831 40.7402C43.3706 40.7402 44.6194 41.989 44.6194 43.5286C44.6194 45.0682 43.3706 46.3176 41.831 46.3176C40.2908 46.3176 39.042 45.0682 39.042 43.5286C39.042 41.989 40.2908 40.7402 41.831 40.7402Z" fill="#E30016"/>
<path fill-rule="evenodd" clip-rule="evenodd" d="M41.831 23.2803C43.3706 23.2803 44.6194 24.5291 44.6194 26.0687C44.6194 27.6089 43.3706 28.8577 41.831 28.8577C40.2908 28.8577 39.042 27.6089 39.042 26.0687C39.042 24.5291 40.2908 23.2803 41.831 23.2803Z" fill="#E30016"/>
<path fill-rule="evenodd" clip-rule="evenodd" d="M41.831 17.46C43.3706 17.46 44.6194 18.7088 44.6194 20.2484C44.6194 21.7886 43.3706 23.0374 41.831 23.0374C40.2908 23.0374 39.042 21.7886 39.042 20.2484C39.042 18.7088 40.2908 17.46 41.831 17.46Z" fill="#E30016"/>
<path fill-rule="evenodd" clip-rule="evenodd" d="M41.831 5.81982C43.3706 5.81982 44.6194 7.06863 44.6194 8.60886C44.6194 10.1484 43.3706 11.3972 41.831 11.3972C40.2908 11.3972 39.042 10.1484 39.042 8.60886C39.042 7.06863 40.2908 5.81982 41.831 5.81982Z" fill="#E30016"/>
<path fill-rule="evenodd" clip-rule="evenodd" d="M36.2539 58.1997C37.7935 58.1997 39.0423 59.4492 39.0423 60.9887C39.0423 62.5283 37.7935 63.7778 36.2539 63.7778C34.7136 63.7778 33.4648 62.5283 33.4648 60.9887C33.4648 59.4492 34.7136 58.1997 36.2539 58.1997Z" fill="#E30016"/>
<path fill-rule="evenodd" clip-rule="evenodd" d="M36.2539 46.5605C37.7935 46.5605 39.0423 47.8093 39.0423 49.3489C39.0423 50.8885 37.7935 52.138 36.2539 52.138C34.7136 52.138 33.4648 50.8885 33.4648 49.3489C33.4648 47.8093 34.7136 46.5605 36.2539 46.5605Z" fill="#E30016"/>
<path fill-rule="evenodd" clip-rule="evenodd" d="M36.2539 40.7402C37.7935 40.7402 39.0423 41.989 39.0423 43.5286C39.0423 45.0682 37.7935 46.3176 36.2539 46.3176C34.7136 46.3176 33.4648 45.0682 33.4648 43.5286C33.4648 41.989 34.7136 40.7402 36.2539 40.7402Z" fill="#E30016"/>
<path fill-rule="evenodd" clip-rule="evenodd" d="M36.2539 34.9199C37.7935 34.9199 39.0423 36.1687 39.0423 37.7083C39.0423 39.2479 37.7935 40.4973 36.2539 40.4973C34.7136 40.4973 33.4648 39.2479 33.4648 37.7083C33.4648 36.1687 34.7136 34.9199 36.2539 34.9199Z" fill="#E30016"/>
<path fill-rule="evenodd" clip-rule="evenodd" d="M36.2539 29.1001C37.7935 29.1001 39.0423 30.3489 39.0423 31.8885C39.0423 33.4281 37.7935 34.6775 36.2539 34.6775C34.7136 34.6775 33.4648 33.4281 33.4648 31.8885C33.4648 30.3489 34.7136 29.1001 36.2539 29.1001Z" fill="#E30016"/>
<path fill-rule="evenodd" clip-rule="evenodd" d="M36.2539 17.46C37.7935 17.46 39.0423 18.7088 39.0423 20.2484C39.0423 21.7886 37.7935 23.0374 36.2539 23.0374C34.7136 23.0374 33.4648 21.7886 33.4648 20.2484C33.4648 18.7088 34.7136 17.46 36.2539 17.46Z" fill="#E30016"/>
<path fill-rule="evenodd" clip-rule="evenodd" d="M36.2539 11.6401C37.7935 11.6401 39.0423 12.8889 39.0423 14.4285C39.0423 15.9687 37.7935 17.2175 36.2539 17.2175C34.7136 17.2175 33.4648 15.9687 33.4648 14.4285C33.4648 12.8889 34.7136 11.6401 36.2539 11.6401Z" fill="#E30016"/>
<path fill-rule="evenodd" clip-rule="evenodd" d="M36.2539 5.81982C37.7935 5.81982 39.0423 7.06863 39.0423 8.60886C39.0423 10.1484 37.7935 11.3972 36.2539 11.3972C34.7136 11.3972 33.4648 10.1484 33.4648 8.60886C33.4648 7.06863 34.7136 5.81982 36.2539 5.81982Z" fill="#E30016"/>
<path fill-rule="evenodd" clip-rule="evenodd" d="M30.6761 58.1997C32.2163 58.1997 33.4651 59.4492 33.4651 60.9887C33.4651 62.5283 32.2163 63.7778 30.6761 63.7778C29.1365 63.7778 27.8877 62.5283 27.8877 60.9887C27.8877 59.4492 29.1365 58.1997 30.6761 58.1997Z" fill="#E30016"/>
<path fill-rule="evenodd" clip-rule="evenodd" d="M30.6761 46.5605C32.2163 46.5605 33.4651 47.8093 33.4651 49.3489C33.4651 50.8885 32.2163 52.138 30.6761 52.138C29.1365 52.138 27.8877 50.8885 27.8877 49.3489C27.8877 47.8093 29.1365 46.5605 30.6761 46.5605Z" fill="#E30016"/>
<path fill-rule="evenodd" clip-rule="evenodd" d="M30.6761 5.81982C32.2163 5.81982 33.4651 7.06863 33.4651 8.60886C33.4651 10.1484 32.2163 11.3972 30.6761 11.3972C29.1365 11.3972 27.8877 10.1484 27.8877 8.60886C27.8877 7.06863 29.1365 5.81982 30.6761 5.81982Z" fill="#E30016"/>
<path fill-rule="evenodd" clip-rule="evenodd" d="M25.0989 52.3794C26.6385 52.3794 27.888 53.6289 27.888 55.1684C27.888 56.708 26.6385 57.9575 25.0989 57.9575C23.5594 57.9575 22.3105 56.708 22.3105 55.1684C22.3105 53.6289 23.5594 52.3794 25.0989 52.3794Z" fill="#E30016"/>
<path fill-rule="evenodd" clip-rule="evenodd" d="M25.0989 46.5605C26.6385 46.5605 27.888 47.8093 27.888 49.3489C27.888 50.8885 26.6385 52.138 25.0989 52.138C23.5594 52.138 22.3105 50.8885 22.3105 49.3489C22.3105 47.8093 23.5594 46.5605 25.0989 46.5605Z" fill="#E30016"/>
<path fill-rule="evenodd" clip-rule="evenodd" d="M25.0989 5.81982C26.6385 5.81982 27.888 7.06863 27.888 8.60886C27.888 10.1484 26.6385 11.3972 25.0989 11.3972C23.5594 11.3972 22.3105 10.1484 22.3105 8.60886C22.3105 7.06863 23.5594 5.81982 25.0989 5.81982Z" fill="#E30016"/>
<path fill-rule="evenodd" clip-rule="evenodd" d="M19.5205 81.48C21.06 81.48 22.3095 82.7295 22.3095 84.269C22.3095 85.8086 21.06 87.0574 19.5205 87.0574C17.9809 87.0574 16.7314 85.8086 16.7314 84.269C16.7314 82.7295 17.9809 81.48 19.5205 81.48Z" fill="#E30016"/>
<path fill-rule="evenodd" clip-rule="evenodd" d="M19.5205 69.8398C21.06 69.8398 22.3095 71.0893 22.3095 72.6289C22.3095 74.1684 21.06 75.4172 19.5205 75.4172C17.9809 75.4172 16.7314 74.1684 16.7314 72.6289C16.7314 71.0893 17.9809 69.8398 19.5205 69.8398Z" fill="#E30016"/>
<path fill-rule="evenodd" clip-rule="evenodd" d="M19.5205 64.0195C21.06 64.0195 22.3095 65.269 22.3095 66.8086C22.3095 68.3481 21.06 69.5976 19.5205 69.5976C17.9809 69.5976 16.7314 68.3481 16.7314 66.8086C16.7314 65.269 17.9809 64.0195 19.5205 64.0195Z" fill="#E30016"/>
<path fill-rule="evenodd" clip-rule="evenodd" d="M19.5205 58.1997C21.06 58.1997 22.3095 59.4492 22.3095 60.9887C22.3095 62.5283 21.06 63.7778 19.5205 63.7778C17.9809 63.7778 16.7314 62.5283 16.7314 60.9887C16.7314 59.4492 17.9809 58.1997 19.5205 58.1997Z" fill="#E30016"/>
<path fill-rule="evenodd" clip-rule="evenodd" d="M19.5205 52.3794C21.06 52.3794 22.3095 53.6289 22.3095 55.1684C22.3095 56.708 21.06 57.9575 19.5205 57.9575C17.9809 57.9575 16.7314 56.708 16.7314 55.1684C16.7314 53.6289 17.9809 52.3794 19.5205 52.3794Z" fill="#E30016"/>
<path fill-rule="evenodd" clip-rule="evenodd" d="M19.5205 46.5605C21.06 46.5605 22.3095 47.8093 22.3095 49.3489C22.3095 50.8885 21.06 52.138 19.5205 52.138C17.9809 52.138 16.7314 50.8885 16.7314 49.3489C16.7314 47.8093 17.9809 46.5605 19.5205 46.5605Z" fill="#E30016"/>
<path fill-rule="evenodd" clip-rule="evenodd" d="M19.5205 40.7402C21.06 40.7402 22.3095 41.989 22.3095 43.5286C22.3095 45.0682 21.06 46.3176 19.5205 46.3176C17.9809 46.3176 16.7314 45.0682 16.7314 43.5286C16.7314 41.989 17.9809 40.7402 19.5205 40.7402Z" fill="#E30016"/>
<path fill-rule="evenodd" clip-rule="evenodd" d="M19.5205 29.1001C21.06 29.1001 22.3095 30.3489 22.3095 31.8885C22.3095 33.4281 21.06 34.6775 19.5205 34.6775C17.9809 34.6775 16.7314 33.4281 16.7314 31.8885C16.7314 30.3489 17.9809 29.1001 19.5205 29.1001Z" fill="#E30016"/>
<path fill-rule="evenodd" clip-rule="evenodd" d="M19.5205 23.2803C21.06 23.2803 22.3095 24.5291 22.3095 26.0687C22.3095 27.6089 21.06 28.8577 19.5205 28.8577C17.9809 28.8577 16.7314 27.6089 16.7314 26.0687C16.7314 24.5291 17.9809 23.2803 19.5205 23.2803Z" fill="#E30016"/>
<path fill-rule="evenodd" clip-rule="evenodd" d="M19.5205 11.6401C21.06 11.6401 22.3095 12.8889 22.3095 14.4285C22.3095 15.9687 21.06 17.2175 19.5205 17.2175C17.9809 17.2175 16.7314 15.9687 16.7314 14.4285C16.7314 12.8889 17.9809 11.6401 19.5205 11.6401Z" fill="#E30016"/>
<path fill-rule="evenodd" clip-rule="evenodd" d="M19.5205 5.81982C21.06 5.81982 22.3095 7.06863 22.3095 8.60886C22.3095 10.1484 21.06 11.3972 19.5205 11.3972C17.9809 11.3972 16.7314 10.1484 16.7314 8.60886C16.7314 7.06863 17.9809 5.81982 19.5205 5.81982Z" fill="#E30016"/>
<path fill-rule="evenodd" clip-rule="evenodd" d="M13.9433 75.6597C15.4829 75.6597 16.7317 76.9091 16.7317 78.4487C16.7317 79.9883 15.4829 81.2371 13.9433 81.2371C12.4037 81.2371 11.1543 79.9883 11.1543 78.4487C11.1543 76.9091 12.4037 75.6597 13.9433 75.6597Z" fill="#E30016"/>
<path fill-rule="evenodd" clip-rule="evenodd" d="M13.9433 64.0195C15.4829 64.0195 16.7317 65.269 16.7317 66.8086C16.7317 68.3481 15.4829 69.5976 13.9433 69.5976C12.4037 69.5976 11.1543 68.3481 11.1543 66.8086C11.1543 65.269 12.4037 64.0195 13.9433 64.0195Z" fill="#E30016"/>
<path fill-rule="evenodd" clip-rule="evenodd" d="M13.9433 52.3794C15.4829 52.3794 16.7317 53.6289 16.7317 55.1684C16.7317 56.708 15.4829 57.9575 13.9433 57.9575C12.4037 57.9575 11.1543 56.708 11.1543 55.1684C11.1543 53.6289 12.4037 52.3794 13.9433 52.3794Z" fill="#E30016"/>
<path fill-rule="evenodd" clip-rule="evenodd" d="M13.9433 40.7402C15.4829 40.7402 16.7317 41.989 16.7317 43.5286C16.7317 45.0682 15.4829 46.3176 13.9433 46.3176C12.4037 46.3176 11.1543 45.0682 11.1543 43.5286C11.1543 41.989 12.4037 40.7402 13.9433 40.7402Z" fill="#E30016"/>
<path fill-rule="evenodd" clip-rule="evenodd" d="M13.9433 34.9199C15.4829 34.9199 16.7317 36.1687 16.7317 37.7083C16.7317 39.2479 15.4829 40.4973 13.9433 40.4973C12.4037 40.4973 11.1543 39.2479 11.1543 37.7083C11.1543 36.1687 12.4037 34.9199 13.9433 34.9199Z" fill="#E30016"/>
<path fill-rule="evenodd" clip-rule="evenodd" d="M13.9433 29.1001C15.4829 29.1001 16.7317 30.3489 16.7317 31.8885C16.7317 33.4281 15.4829 34.6775 13.9433 34.6775C12.4037 34.6775 11.1543 33.4281 11.1543 31.8885C11.1543 30.3489 12.4037 29.1001 13.9433 29.1001Z" fill="#E30016"/>
<path fill-rule="evenodd" clip-rule="evenodd" d="M13.9433 23.2803C15.4829 23.2803 16.7317 24.5291 16.7317 26.0687C16.7317 27.6089 15.4829 28.8577 13.9433 28.8577C12.4037 28.8577 11.1543 27.6089 11.1543 26.0687C11.1543 24.5291 12.4037 23.2803 13.9433 23.2803Z" fill="#E30016"/>
<path fill-rule="evenodd" clip-rule="evenodd" d="M13.9433 17.46C15.4829 17.46 16.7317 18.7088 16.7317 20.2484C16.7317 21.7886 15.4829 23.0374 13.9433 23.0374C12.4037 23.0374 11.1543 21.7886 11.1543 20.2484C11.1543 18.7088 12.4037 17.46 13.9433 17.46Z" fill="#E30016"/>
<path fill-rule="evenodd" clip-rule="evenodd" d="M13.9433 11.6401C15.4829 11.6401 16.7317 12.8889 16.7317 14.4285C16.7317 15.9687 15.4829 17.2175 13.9433 17.2175C12.4037 17.2175 11.1543 15.9687 11.1543 14.4285C11.1543 12.8889 12.4037 11.6401 13.9433 11.6401Z" fill="#E30016"/>
<path fill-rule="evenodd" clip-rule="evenodd" d="M13.9433 5.81982C15.4829 5.81982 16.7317 7.06863 16.7317 8.60886C16.7317 10.1484 15.4829 11.3972 13.9433 11.3972C12.4037 11.3972 11.1543 10.1484 11.1543 8.60886C11.1543 7.06863 12.4037 5.81982 13.9433 5.81982Z" fill="#E30016"/>
<path fill-rule="evenodd" clip-rule="evenodd" d="M8.36618 58.1997C9.90578 58.1997 11.1546 59.4492 11.1546 60.9887C11.1546 62.5283 9.90578 63.7778 8.36618 63.7778C6.82662 63.7778 5.57715 62.5283 5.57715 60.9887C5.57715 59.4492 6.82662 58.1997 8.36618 58.1997Z" fill="#E30016"/>
<path fill-rule="evenodd" clip-rule="evenodd" d="M8.36618 46.5605C9.90578 46.5605 11.1546 47.8093 11.1546 49.3489C11.1546 50.8885 9.90578 52.138 8.36618 52.138C6.82662 52.138 5.57715 50.8885 5.57715 49.3489C5.57715 47.8093 6.82662 46.5605 8.36618 46.5605Z" fill="#E30016"/>
<path fill-rule="evenodd" clip-rule="evenodd" d="M8.36618 34.9199C9.90578 34.9199 11.1546 36.1687 11.1546 37.7083C11.1546 39.2479 9.90578 40.4973 8.36618 40.4973C6.82662 40.4973 5.57715 39.2479 5.57715 37.7083C5.57715 36.1687 6.82662 34.9199 8.36618 34.9199Z" fill="#E30016"/>
<path fill-rule="evenodd" clip-rule="evenodd" d="M8.36618 17.46C9.90578 17.46 11.1546 18.7088 11.1546 20.2484C11.1546 21.7886 9.90578 23.0374 8.36618 23.0374C6.82662 23.0374 5.57715 21.7886 5.57715 20.2484C5.57715 18.7088 6.82662 17.46 8.36618 17.46Z" fill="#E30016"/>
<path fill-rule="evenodd" clip-rule="evenodd" d="M8.36618 11.6401C9.90578 11.6401 11.1546 12.8889 11.1546 14.4285C11.1546 15.9687 9.90578 17.2175 8.36618 17.2175C6.82662 17.2175 5.57715 15.9687 5.57715 14.4285C5.57715 12.8889 6.82662 11.6401 8.36618 11.6401Z" fill="#E30016"/>
<path fill-rule="evenodd" clip-rule="evenodd" d="M2.78904 81.48C4.3286 81.48 5.57741 82.7295 5.57741 84.269C5.57741 85.8086 4.3286 87.0574 2.78904 87.0574C1.2488 87.0574 0 85.8086 0 84.269C0 82.7295 1.2488 81.48 2.78904 81.48Z" fill="#E30016"/>
<path fill-rule="evenodd" clip-rule="evenodd" d="M2.78904 69.8398C4.3286 69.8398 5.57741 71.0893 5.57741 72.6289C5.57741 74.1684 4.3286 75.4172 2.78904 75.4172C1.2488 75.4172 0 74.1684 0 72.6289C0 71.0893 1.2488 69.8398 2.78904 69.8398Z" fill="#E30016"/>
<path fill-rule="evenodd" clip-rule="evenodd" d="M2.78904 64.0195C4.3286 64.0195 5.57741 65.269 5.57741 66.8086C5.57741 68.3481 4.3286 69.5976 2.78904 69.5976C1.2488 69.5976 0 68.3481 0 66.8086C0 65.269 1.2488 64.0195 2.78904 64.0195Z" fill="#E30016"/>
<path fill-rule="evenodd" clip-rule="evenodd" d="M2.78904 52.3794C4.3286 52.3794 5.57741 53.6289 5.57741 55.1684C5.57741 56.708 4.3286 57.9575 2.78904 57.9575C1.2488 57.9575 0 56.708 0 55.1684C0 53.6289 1.2488 52.3794 2.78904 52.3794Z" fill="#E30016"/>
<path fill-rule="evenodd" clip-rule="evenodd" d="M2.78904 46.5605C4.3286 46.5605 5.57741 47.8093 5.57741 49.3489C5.57741 50.8885 4.3286 52.138 2.78904 52.138C1.2488 52.138 0 50.8885 0 49.3489C0 47.8093 1.2488 46.5605 2.78904 46.5605Z" fill="#E30016"/>
<path fill-rule="evenodd" clip-rule="evenodd" d="M2.78904 40.7402C4.3286 40.7402 5.57741 41.989 5.57741 43.5286C5.57741 45.0682 4.3286 46.3176 2.78904 46.3176C1.2488 46.3176 0 45.0682 0 43.5286C0 41.989 1.2488 40.7402 2.78904 40.7402Z" fill="#E30016"/>
<path fill-rule="evenodd" clip-rule="evenodd" d="M2.78904 29.1001C4.3286 29.1001 5.57741 30.3489 5.57741 31.8885C5.57741 33.4281 4.3286 34.6775 2.78904 34.6775C1.2488 34.6775 0 33.4281 0 31.8885C0 30.3489 1.2488 29.1001 2.78904 29.1001Z" fill="#E30016"/>
<path fill-rule="evenodd" clip-rule="evenodd" d="M2.78904 23.2803C4.3286 23.2803 5.57741 24.5291 5.57741 26.0687C5.57741 27.6089 4.3286 28.8577 2.78904 28.8577C1.2488 28.8577 0 27.6089 0 26.0687C0 24.5291 1.2488 23.2803 2.78904 23.2803Z" fill="#E30016"/>
<path fill-rule="evenodd" clip-rule="evenodd" d="M2.78904 17.46C4.3286 17.46 5.57741 18.7088 5.57741 20.2484C5.57741 21.7886 4.3286 23.0374 2.78904 23.0374C1.2488 23.0374 0 21.7886 0 20.2484C0 18.7088 1.2488 17.46 2.78904 17.46Z" fill="#E30016"/>
<path fill-rule="evenodd" clip-rule="evenodd" d="M2.78904 11.6401C4.3286 11.6401 5.57741 12.8889 5.57741 14.4285C5.57741 15.9687 4.3286 17.2175 2.78904 17.2175C1.2488 17.2175 0 15.9687 0 14.4285C0 12.8889 1.2488 11.6401 2.78904 11.6401Z" fill="#E30016"/>
<path fill-rule="evenodd" clip-rule="evenodd" d="M2.78904 5.81982C4.3286 5.81982 5.57741 7.06863 5.57741 8.60886C5.57741 10.1484 4.3286 11.3972 2.78904 11.3972C1.2488 11.3972 0 10.1484 0 8.60886C0 7.06863 1.2488 5.81982 2.78904 5.81982Z" fill="#E30016"/>
<path fill-rule="evenodd" clip-rule="evenodd" d="M41.831 0C43.3706 0 44.6194 1.2488 44.6194 2.78904C44.6194 4.3286 43.3706 5.57741 41.831 5.57741C40.2908 5.57741 39.042 4.3286 39.042 2.78904C39.042 1.2488 40.2908 0 41.831 0Z" fill="#E30016"/>
<path fill-rule="evenodd" clip-rule="evenodd" d="M36.2539 0C37.7935 0 39.0423 1.2488 39.0423 2.78904C39.0423 4.3286 37.7935 5.57741 36.2539 5.57741C34.7136 5.57741 33.4648 4.3286 33.4648 2.78904C33.4648 1.2488 34.7136 0 36.2539 0Z" fill="#E30016"/>
<path fill-rule="evenodd" clip-rule="evenodd" d="M30.6761 0C32.2163 0 33.4651 1.2488 33.4651 2.78904C33.4651 4.3286 32.2163 5.57741 30.6761 5.57741C29.1365 5.57741 27.8877 4.3286 27.8877 2.78904C27.8877 1.2488 29.1365 0 30.6761 0Z" fill="#E30016"/>
<path fill-rule="evenodd" clip-rule="evenodd" d="M25.0989 0C26.6385 0 27.888 1.2488 27.888 2.78904C27.888 4.3286 26.6385 5.57741 25.0989 5.57741C23.5594 5.57741 22.3105 4.3286 22.3105 2.78904C22.3105 1.2488 23.5594 0 25.0989 0Z" fill="#E30016"/>
<path fill-rule="evenodd" clip-rule="evenodd" d="M19.5205 0C21.06 0 22.3095 1.2488 22.3095 2.78904C22.3095 4.3286 21.06 5.57741 19.5205 5.57741C17.9809 5.57741 16.7314 4.3286 16.7314 2.78904C16.7314 1.2488 17.9809 0 19.5205 0Z" fill="#E30016"/>
<path fill-rule="evenodd" clip-rule="evenodd" d="M13.9433 0C15.4829 0 16.7317 1.2488 16.7317 2.78904C16.7317 4.3286 15.4829 5.57741 13.9433 5.57741C12.4037 5.57741 11.1543 4.3286 11.1543 2.78904C11.1543 1.2488 12.4037 0 13.9433 0Z" fill="#E30016"/>
<path fill-rule="evenodd" clip-rule="evenodd" d="M8.36618 0C9.90578 0 11.1546 1.2488 11.1546 2.78904C11.1546 4.3286 9.90578 5.57741 8.36618 5.57741C6.82662 5.57741 5.57715 4.3286 5.57715 2.78904C5.57715 1.2488 6.82662 0 8.36618 0Z" fill="#E30016"/>
<path fill-rule="evenodd" clip-rule="evenodd" d="M2.78904 0C4.3286 0 5.57741 1.2488 5.57741 2.78904C5.57741 4.3286 4.3286 5.57741 2.78904 5.57741C1.2488 5.57741 0 4.3286 0 2.78904C0 1.2488 1.2488 0 2.78904 0Z" fill="#E30016"/>
</svg>
